<svg xmlns="http://www.w3.org/2000/svg" viewBox="0 0 120.29 121.44"><defs><style>.cls-1{fill:none;}.cls-2{fill:#0d0d0a;}.cls-3{font-size:18.79px;font-family:DIN2014-Narrow, DIN 2014 Narrow;}.cls-3,.cls-5{fill:#231f20;}.cls-4{fill:#f57f20;}.cls-6,.cls-7{fill:#fff;}.cls-7{font-size:29.38px;font-family:FilosofiaItalic, FilosofiaItalic;font-style:italic;}</style></defs><title>Asset 3</title><g id="Layer_2" data-name="Layer 2"><g id="fox"><path class="cls-1" d="M7.33,34.41h0v0Z"/><polygon class="cls-1" points="7.33 34.21 7.33 34.21 7.33 34.21 7.33 34.2 7.33 34.21"/><path class="cls-2" d="M7.41,34.41h.17l-.18-.23A1.77,1.77,0,0,1,7.41,34.41Z"/><path class="cls-2" d="M6.34,34.41h.17l-.18-.23A1.77,1.77,0,0,0,6.34,34.41Z"/><path class="cls-1" d="M6.33,34.41v0Z"/><polygon class="cls-1" points="6.33 34.21 6.33 34.21 6.33 34.2 6.33 34.21 6.33 34.21"/><path class="cls-1" d="M40.69,34.41h0s0-.07,0-.1Z"/><polygon class="cls-1" points="40.69 34.21 40.69 34.21 40.69 34.21 40.69 34.2 40.69 34.21"/><path class="cls-2" d="M40.6,34.41h-.16c.05-.08.11-.15.17-.23A1.77,1.77,0,0,1,40.6,34.41Z"/><path class="cls-2" d="M41.68,34.41h-.17l.18-.23A1.77,1.77,0,0,0,41.68,34.41Z"/><path class="cls-1" d="M41.69,34.41v0Z"/><polygon class="cls-1" points="41.69 34.21 41.69 34.21 41.69 34.2 41.69 34.21 41.69 34.21"/><text class="cls-3" transform="translate(104.45 114.94)">b</text><rect class="cls-4" x="2" y="2" width="116.29" height="116.29"/><path class="cls-5" d="M116.29,4V116.29H4V4H116.29m4-4H0V120.29H120.29V0Z"/><rect class="cls-6" x="36.42" y="63.08" width="46.87" height="36.97" rx="8.41" ry="8.41"/><path class="cls-6" d="M56.34,103h-.88s-2.93.2-6.44,3.28-3.23,5.55-3.23,5.55l3.55-.68a44.17,44.17,0,0,0,9.28-2.87l1.23-.56,1.32.62A33.9,33.9,0,0,0,69.76,111l4.74.84A24,24,0,0,0,71,106.28c-2-2.46-5.42-3.08-7-3.22"/><path class="cls-6" d="M99.76,33.87A16.18,16.18,0,0,1,83.58,50.06v9.33H36.71V50.06a16.19,16.19,0,1,1,7.2-30.68,16.18,16.18,0,0,1,31.93.27A16.2,16.2,0,0,1,99.76,33.87Z"/><path class="cls-4" d="M76.7,88.54a3.88,3.88,0,0,1-3.45,2.09A3.91,3.91,0,0,1,70.09,89a3.7,3.7,0,0,1-.29-.47,7.38,7.38,0,0,0-3.39-3.35,10,10,0,0,0-2.78-.81,3.78,3.78,0,0,1-7.55,0,9.92,9.92,0,0,0-2.78.81,7.29,7.29,0,0,0-3.39,3.35,3.7,3.7,0,0,1-.29.47,3.91,3.91,0,0,1-3.16,1.61A3.88,3.88,0,0,1,43,88.54a3.87,3.87,0,0,0-.74,2.29c0,2.15,1.74,2.73,3.9,2.73l13.68-2.14h0l13.68,2.14c2.16,0,3.9-.58,3.9-2.73A3.87,3.87,0,0,0,76.7,88.54Z"/><circle class="cls-4" cx="67.85" cy="73.39" r="4.04"/><circle class="cls-4" cx="50.85" cy="73.39" r="4.04"/><path class="cls-5" d="M101.65,89.32h18.64a0,0,0,0,1,0,0v31a0,0,0,0,1,0,0h-31a0,0,0,0,1,0,0V101.65A12.32,12.32,0,0,1,101.65,89.32Z"/><text class="cls-7" transform="translate(98.83 113.49)">b</text><rect class="cls-4" x="33.42" y="31.49" width="6" height="6" transform="translate(35.06 -15.65) rotate(45)"/></g></g></svg>