<?xml version="1.0" encoding="utf-8"?>
<!-- Generator: Adobe Illustrator 22.0.1, SVG Export Plug-In . SVG Version: 6.00 Build 0)  -->
<svg version="1.1" id="Layer_1" xmlns="http://www.w3.org/2000/svg" xmlns:xlink="http://www.w3.org/1999/xlink" x="0px" y="0px"
	 viewBox="0 0 800 800" style="enable-background:new 0 0 800 800;" xml:space="preserve">
<style type="text/css">
	.st0{fill:#FFFFFF;stroke:#000000;stroke-width:18;stroke-miterlimit:10;}
	.st1{fill:#FFFFFF;}
	.st2{fill:#FFFFFF;stroke:#000000;stroke-width:21;stroke-miterlimit:10;}
	.st3{fill:#070600;}
</style>
<g>
	<path class="st0" d="M520,302H297v89h223C520,361.3,520,331.7,520,302z"/>
	<g>
		<rect x="297" y="400" class="st1" width="223" height="149"/>
		<path d="M511,409v131H306V409H511 M529,391h-9H297h-9v167h241V391L529,391z"/>
	</g>
</g>
<path class="st2" d="M519.5,224.5c-16.7,0-31.9,6.6-43.1,17.4c-1.1-36.9-31.3-66.4-68.4-66.4s-67.3,29.5-68.4,66.4
	c-11.2-10.8-26.3-17.4-43.1-17.4c-34.2,0-62,27.8-62,62c0,34.2,27.8,62,62,62c32.7,0,59.4-25.3,61.8-57.4
	c12.5,13.2,30.1,21.4,49.7,21.4s37.2-8.2,49.7-21.4c2.4,32.1,29.1,57.4,61.8,57.4c34.2,0,62-27.8,62-62
	C581.5,252.3,553.7,224.5,519.5,224.5z"/>
<circle class="st3" cx="372.2" cy="446.2" r="13.8"/>
<circle class="st3" cx="439.2" cy="446.2" r="13.8"/>
<path class="st3" d="M445,491c-6.7-12-18.5-15-24-15.7l0,0c0,5.9-4.8,10.7-10.7,10.7H406c-6.1,0-11-4.9-11-11l0,0h-3c0,0-10,1-22,16
	s-11,27-11,27l33-16h30l35,16C457,518,454,507,445,491z"/>
<path class="st3" d="M396,556h-3c0,0-10,1-22,16s-11,27-11,27l12.1-3.3c11.2-3.1,21.8-7.8,31.7-14l4.2-2.7l4.5,3
	c8.9,6,18.8,10.3,29.3,12.9L458,599c0,0-3-11-12-27c-6.7-12-18.5-15-24-15.7"/>
</svg>
