<svg xmlns="http://www.w3.org/2000/svg" viewBox="0 0 590 98.62"><defs><style>.cls-1{fill:#ff6702;}.cls-2{font-size:87.33px;font-family:FuturaPT-Light, Futura PT;}.cls-3{fill:#fff;}.cls-4{fill:#f16722;}</style></defs><title>Asset 1</title><g id="Layer_2" data-name="Layer 2"><g id="Layer_1-2" data-name="Layer 1"><rect class="cls-1" width="590" height="80"/><text class="cls-2" transform="translate(82.3 76.79) scale(1.06 1)">butler</text><rect y="76.5" width="590" height="7"/><rect class="cls-3" x="34.34" y="44.78" width="36.75" height="28.99" rx="4.42" ry="4.42"/><path class="cls-3" d="M50,76.08h-.68a9.57,9.57,0,0,0-5.06,2.57C41.46,81.07,41.69,83,41.69,83l2.77-.53a34.36,34.36,0,0,0,7.29-2.25l1-.44,1,.48a26.29,26.29,0,0,0,6.73,2.08l3.72.66a18.44,18.44,0,0,0-2.75-4.35c-1.54-1.93-4.25-2.41-5.51-2.53"/><path class="cls-3" d="M84,21.88A12.69,12.69,0,0,1,71.31,34.57v7.32H34.56V34.57a12.69,12.69,0,1,1,5.65-24.06,12.68,12.68,0,0,1,25,.22A12.7,12.7,0,0,1,84,21.88Z"/><path class="cls-4" d="M65.92,64.74a3,3,0,0,1-2.71,1.64A3,3,0,0,1,61.82,66a3,3,0,0,1-1.08-.93,2.21,2.21,0,0,1-.23-.36,5.79,5.79,0,0,0-2.66-2.63,7.61,7.61,0,0,0-2.18-.63,2.93,2.93,0,0,1-5.44,1.56,3,3,0,0,1-.48-1.56,7.61,7.61,0,0,0-2.18.63,5.79,5.79,0,0,0-2.66,2.63A3,3,0,0,1,43.6,66a3,3,0,0,1-1.39.34,3,3,0,0,1-2.71-1.64,3,3,0,0,0-.58,1.8c0,1.69,1.37,2.14,3.06,2.14L52.7,67h0l10.72,1.68c1.69,0,3.06-.45,3.06-2.14A3,3,0,0,0,65.92,64.74Z"/><circle class="cls-4" cx="58.98" cy="52.86" r="3.17"/><circle class="cls-4" cx="45.65" cy="52.86" r="3.17"/><rect class="cls-4" x="31.98" y="20.01" width="4.71" height="4.71" transform="translate(25.87 -17.73) rotate(45)"/></g></g></svg>